<svg xmlns="http://www.w3.org/2000/svg" viewBox="0 0 512 512">
  <rect width="512" height="512" fill="#16a34a" rx="128" />
  <g transform="translate(106, 106) scale(12.5)">
    <path fill="white" d="M13 16a3 3 0 0 1 2.24 5"/>
    <path fill="white" d="M18 12h.01"/>
    <path fill="none" stroke="white" stroke-width="2" stroke-linecap="round" stroke-linejoin="round" d="M13 16a3 3 0 0 1 2.24 5 M18 12h.01 M18 21h-8a4 4 0 0 1-4-4 7 7 0 0 1 4-4 7 7 0 0 1 4-4 7 7 0 0 1 4-4 7 7 0 0 1 4-4h.01"/>
    <path fill="white" stroke="white" stroke-width="2" stroke-linecap="round" stroke-linejoin="round" d="M18 21h-8a4 4 0 0 1-4-4 7 7 0 0 1 4-4 7 7 0 0 1 4-4 7 7 0 0 1 4-4 7 7 0 0 1 4-4h.01" />
  </g>
</svg>